<svg xmlns="http://www.w3.org/2000/svg" xmlns:xlink="http://www.w3.org/1999/xlink" width="500" zoomAndPan="magnify" viewBox="0 0 375 374.999991" height="500" preserveAspectRatio="xMidYMid meet" version="1.0"><defs><clipPath id="0b9e259078"><path d="M 112.5 112.5 L 262.5 112.5 L 262.5 262.5 L 112.5 262.5 Z M 112.5 112.5 " clip-rule="nonzero"/></clipPath></defs><g clip-path="url(#0b9e259078)"><path fill="#39b54a" d="M 187.5 112.5 C 146.082031 112.5 112.5 146.082031 112.5 187.5 C 112.5 228.917969 146.082031 262.5 187.5 262.5 C 228.917969 262.5 262.5 228.917969 262.5 187.5 C 262.5 146.082031 228.917969 112.5 187.5 112.5 Z M 229.710938 175.925781 L 185.828125 219.804688 C 183.714844 221.917969 180.855469 223.105469 177.859375 223.105469 C 174.910156 223.105469 172.050781 221.917969 169.9375 219.804688 L 148.019531 197.886719 C 143.617188 193.484375 143.617188 186.398438 148.019531 182 C 152.421875 177.640625 159.464844 177.640625 163.863281 182 L 177.859375 196.039062 L 213.820312 160.078125 C 218.222656 155.679688 225.308594 155.679688 229.710938 160.078125 C 234.066406 164.4375 234.066406 171.523438 229.710938 175.925781 Z M 229.710938 175.925781 " fill-opacity="1" fill-rule="nonzero"/></g><path fill="#ffffff" d="M 229.710938 175.925781 L 185.828125 219.804688 C 183.714844 221.917969 180.855469 223.105469 177.859375 223.105469 C 174.910156 223.105469 172.050781 221.917969 169.9375 219.804688 L 148.019531 197.886719 C 143.617188 193.484375 143.617188 186.398438 148.019531 182 C 152.421875 177.640625 159.464844 177.640625 163.863281 182 L 177.859375 196.039062 L 213.820312 160.078125 C 218.222656 155.679688 225.308594 155.679688 229.710938 160.078125 C 234.066406 164.4375 234.066406 171.523438 229.710938 175.925781 Z M 229.710938 175.925781 " fill-opacity="1" fill-rule="nonzero"/></svg>